<svg xmlns="http://www.w3.org/2000/svg" viewBox="0 0 314.11 383.42"><defs><style>.cls-1{fill:#fff;}</style></defs><title>Mixtape Pride Glyph</title><g id="Layer_2" data-name="Layer 2"><g id="Layer_1-2" data-name="Layer 1"><path class="cls-1" d="M314.11,5q0,4.49-6.75,4.48h-38.7l-82.8,236.87q-15.77,45-32.4,69t-45,42.92q-37.38,25.17-65.71,25.18-17.1,0-29.92-8.33T0,355.51a25.85,25.85,0,0,1,7-18q7-7.65,16-7.64a19.22,19.22,0,0,1,19.8,19.79q0,4.48-4.66,9.91a9.94,9.94,0,0,0-2.54,6.3q0,7.63,12.56,7.64,19.72,0,35.87-21.15,32.74-42.3,57.86-115.2l23.77-68.4q-22.52-.45-32.85-1.8-18-2.25-31.06-9.91-30.6-18-30.6-50,0-27,16.43-51.75A116.69,116.69,0,0,1,131.4,16.21Q162.45,0,209.26,0h97.65C311.7,0,314.11,1.66,314.11,5ZM257.86,9.45h-23.4L152.1,237.61Q135,284.86,124.65,306t-28.8,45.45a3.68,3.68,0,0,0-1.35,2.26A2,2,0,0,0,96.76,356q2.68,0,15.74-10.13a179.72,179.72,0,0,0,20.26-17.77q22.49-24.3,42.29-81.45Z"/></g></g></svg>