<?xml version="1.0" encoding="UTF-8"?>
<!-- Generator: Adobe Illustrator 16.0.0, SVG Export Plug-In . SVG Version: 6.00 Build 0)  -->
<!DOCTYPE svg PUBLIC "-//W3C//DTD SVG 1.1//EN" "http://www.w3.org/Graphics/SVG/1.1/DTD/svg11.dtd">
<svg version="1.1" id="Layer_1" xmlns="http://www.w3.org/2000/svg" xmlns:xlink="http://www.w3.org/1999/xlink" x="0px" y="0px" width="341.972px" height="113.974px" viewBox="0 0 341.972 113.974" enable-background="new 0 0 341.972 113.974" xml:space="preserve">
<g>
	<g>
		<path d="M157.864,12.248h-1.202V2.839h-3.526V1.744h8.253v1.095h-3.525V12.248z"/>
		<path d="M167.794,7.521v4.727h-1.186V1.744h1.186v4.667h6.06V1.744h1.188v10.504h-1.188V7.521H167.794z"/>
		<path d="M188.602,2.824h-6.407v3.587h5.729v1.081h-5.729v3.677h6.481v1.08h-7.666V1.744h7.592V2.824z"/>
	</g>
	<g>
		<path fill="#DBC525" d="M24.243,28.624l5.952-5.949H9.478v4.245H5.233v46.328l5.946-5.953V50.331h9.813l5.95-5.948H11.18V28.624    H24.243z M11.18,24.378h14.896l-2.541,2.542H11.18V24.378z M9.478,28.624v20.004h-2.54V28.624H9.478z M9.478,66.591l-2.54,2.539    V50.331h2.54V66.591z M22.826,46.087l-2.541,2.542H11.18v-2.542H22.826z"/>
		<path fill="#DBC525" d="M207.974,22.675l-5.952,5.949h15.764v44.62l5.949-5.949V28.624h9.814l5.942-5.949h-16.608H207.974z     M208.681,24.378h13.351v2.542h-3.391h-12.502L208.681,24.378z M222.032,66.591l-2.541,2.539V28.624h2.541V66.591z M232.842,26.92    h-9.107v-2.542h11.646L232.842,26.92z"/>
		<path fill="#DBC525" d="M336.738,22.675h-31.52l-5.949,5.949h15.761v44.62l5.95-5.949V28.624h9.811L336.738,22.675z     M305.923,24.378h13.352v2.542h-15.893L305.923,24.378z M319.275,66.591l-2.539,2.539V28.624h2.539V66.591z M320.981,26.92v-2.542    h11.643l-2.539,2.542H320.981z"/>
		<path fill="#DBC525" d="M51.985,28.624l5.952-5.949H37.22v4.245h-4.246v45.12h19.011l5.952-5.947H38.925V50.331h9.81l5.952-5.948    H38.925V28.624H51.985z M38.925,24.378H53.82l-2.544,2.542H38.925V24.378z M37.22,28.624v20.004h-2.543V28.624H37.22z     M53.818,67.794l-2.542,2.542H34.677V50.331h2.543v17.463H53.818z M50.57,46.087l-2.542,2.542h-9.103v-2.542H50.57z"/>
		<path fill="#DBC525" d="M158.903,28.624l5.949-5.949h-20.713v4.245h-4.243v45.12h19.007l5.949-5.947h-19.011V50.331h9.812    l5.95-5.948h-15.761V28.624H158.903z M145.841,24.378h14.895l-2.539,2.542h-12.356V24.378z M144.139,28.624v20.004h-2.542V28.624    H144.139z M160.736,67.794l-2.539,2.542h-16.6V50.331h2.542v17.463H160.736z M157.488,46.087l-2.542,2.542h-9.105v-2.542H157.488z    "/>
		<path fill="#DBC525" d="M67.123,26.92h-4.245v46.324l5.952-5.949V50.331h2.044l9.793,9.766l0.017,13.144l5.95-5.945V55.129    l-9.945-9.888l9.945-9.944V22.675H67.123V26.92z M67.123,28.624v20.004h-2.541V28.624H67.123z M67.123,66.591l-2.541,2.541V50.331    h2.541V66.591z M70.89,48.628h-2.06v-2.542h4.603L70.89,48.628z M84.928,55.835v10.756l-2.543,2.544l-0.015-9.747l-9.928-9.899    l3.042-3.042L84.928,55.835z M68.83,24.378h16.098v10.214l-2.54,2.543V26.92H68.83V24.378z M80.682,28.624V38.84l-5.544,5.543    H68.83V28.624H80.682z"/>
		<path fill="#DBC525" d="M192.18,39.064l-17.597-17.597v8.492l-4.246-4.246v47.53l5.951-5.949v-33.22l15.896,15.895l0.006,23.282    l5.938-6.009V21.468l-5.952,5.952L192.18,39.064z M174.583,66.591l-2.539,2.539v-39.3l2.539,2.541V66.591z M176.288,31.664v-6.08    l15.894,15.892v6.083L176.288,31.664z M193.893,69.104l-0.009-25.923l2.539,2.54v20.824L193.893,69.104z M196.423,43.308    l-2.541-2.54l-0.003-12.643l2.544-2.541V43.308z"/>
		<path fill="#DBC525" d="M101.039,21.482v8.484l-4.244-4.243v47.515l5.948-5.949V34.082l8.868,8.871l0.604,0.568l13.681-13.679    v43.393l5.948-5.945V21.48l-15.401,15.405L101.039,21.482z M101.039,66.582l-2.537,2.538v-39.28l2.537,2.538V66.582z     M112.196,41.128l-9.454-9.456v-6.075l12.492,12.494L112.196,41.128z M127.6,28.135l2.539-2.536v40.983l-2.539,2.538V28.135z"/>
		<path fill="#DBC525" d="M263.111,28.651l5.954-5.95h-22.07l-5.949,5.95h11.083v37.391h-5.134l-5.949,5.949h22.065l5.954-5.949    h-10.986V28.651H263.111z M262.404,26.947h-4.326v-2.542h6.868L262.404,26.947z M247.703,24.405h8.671v2.542h-11.216    L247.703,24.405z M247.703,67.744h4.426v2.545h-6.97L247.703,67.744z M262.404,70.289h-8.572v-2.545h11.115L262.404,70.289z     M256.374,66.042h-2.542V28.651h2.542V66.042z"/>
		<path fill="#DBC525" d="M277.839,26.92h-4.246l0.02,15.405l17.773,17.771l0.007,5.945h-11.849v-12.67l-5.952,5.952v12.667h19.51    l-0.008-4.247h4.253V55.129l-17.804-17.728v-8.778h11.854v12.622l5.95-5.949V22.675h-19.51V26.92z M279.545,24.378h16.097v10.213    l-2.539,2.542V26.92h-13.559V24.378z M277.839,28.624v8.987l-2.521,2.524l-0.017-11.512H277.839z M275.297,70.289V60.031    l2.542-2.542v10.254h13.556l0.004,2.545H275.297z M293.096,66.042l-0.006-5.949l2.552-2.553v8.502H293.096z M295.291,55.483    l-3.054,3.054l-16.453-16.455l3.014-3.016L295.291,55.483z"/>
	</g>
	<g>
		<path d="M24.387,85.919H18.28v3.417h5.462v1.03H18.28v3.502h6.176v1.029H17.15V84.89h7.237V85.919z"/>
		<path d="M36.54,94.898l-3.204-4.304l-3.202,4.304h-1.299l3.843-5.104l-3.703-4.905h1.331l3.074,4.089l3.046-4.089h1.314    l-3.704,4.89l3.849,5.118H36.54z"/>
		<path d="M46.38,91.367h-2.432v3.531H42.82V84.89h3.746c2.258,0,3.746,1.201,3.746,3.188C50.312,90.252,48.509,91.367,46.38,91.367    z M46.481,85.934h-2.532v4.403h2.473c1.658,0,2.746-0.886,2.746-2.215C49.167,86.677,48.095,85.934,46.481,85.934z"/>
		<path d="M55.231,84.89h1.13v8.965h5.633v1.043h-6.763V84.89z"/>
		<path d="M71.018,95.07c-3.044,0-5.089-2.389-5.089-5.162c0-2.772,2.072-5.188,5.119-5.188c3.043,0,5.09,2.385,5.09,5.16    S74.064,95.07,71.018,95.07z M71.018,85.763c-2.287,0-3.917,1.829-3.917,4.117c0,2.287,1.659,4.146,3.946,4.146    c2.288,0,3.917-1.83,3.917-4.118C74.963,87.621,73.305,85.763,71.018,85.763z"/>
		<path d="M88.277,94.898l-2.901-3.889h-2.862v3.889h-1.128V84.89h4.304c2.203,0,3.617,1.187,3.617,2.988    c0,1.673-1.144,2.645-2.717,2.931l3.074,4.09H88.277z M85.603,85.934h-3.089v4.061h3.075c1.502,0,2.574-0.771,2.574-2.073    C88.163,86.677,87.219,85.934,85.603,85.934z"/>
		<path d="M103.905,94.898h-1.214l-1.174-2.646h-5.445l-1.187,2.646h-1.159l4.561-10.08h1.057L103.905,94.898z M98.803,86.135    l-2.288,5.104h4.561L98.803,86.135z"/>
		<path d="M111.242,94.898h-1.144v-8.964h-3.36V84.89h7.864v1.044h-3.361V94.898z"/>
		<path d="M120.81,84.89v10.008h-1.129V84.89H120.81z"/>
		<path d="M131.248,95.07c-3.046,0-5.089-2.389-5.089-5.162c0-2.772,2.072-5.188,5.119-5.188c3.044,0,5.089,2.385,5.089,5.16    S134.292,95.07,131.248,95.07z M131.248,85.763c-2.288,0-3.917,1.829-3.917,4.117c0,2.287,1.659,4.146,3.946,4.146    s3.916-1.83,3.916-4.118C135.193,87.621,133.535,85.763,131.248,85.763z"/>
		<path d="M148.98,84.89h1.099v10.008h-0.899l-6.463-8.206v8.206h-1.099V84.89h1.057l6.306,8.02V84.89z"/>
		<path d="M159.362,89.351c2.229,0.487,3.257,1.302,3.257,2.846c0,1.729-1.429,2.846-3.415,2.846c-1.588,0-2.889-0.53-4.089-1.602    l0.701-0.83c1.043,0.943,2.043,1.416,3.431,1.416c1.343,0,2.23-0.701,2.23-1.716c0-0.943-0.502-1.473-2.603-1.916    c-2.302-0.5-3.359-1.244-3.359-2.902c0-1.601,1.386-2.744,3.287-2.744c1.458,0,2.502,0.415,3.518,1.229l-0.659,0.873    c-0.929-0.758-1.858-1.087-2.886-1.087c-1.302,0-2.131,0.714-2.131,1.63C156.645,88.35,157.16,88.878,159.362,89.351z"/>
		<path d="M182.156,95.098l-1.574-1.616c-0.916,0.986-1.973,1.56-3.275,1.56c-1.801,0-3.145-1.13-3.145-2.817    c0-1.344,0.887-2.301,2.415-2.902c-0.684-0.801-0.999-1.415-0.999-2.217c0-1.329,1.057-2.385,2.644-2.385    c1.401,0,2.43,1,2.43,2.273c0,1.3-0.899,2.102-2.357,2.616l2.287,2.331c0.442-0.644,0.842-1.401,1.202-2.23l0.929,0.428    c-0.444,0.945-0.901,1.803-1.444,2.519l1.744,1.785L182.156,95.098z M177.224,90.023c-1.331,0.486-1.916,1.301-1.916,2.159    c0,1.086,0.854,1.9,2.085,1.9c0.943,0,1.774-0.499,2.503-1.3L177.224,90.023z M178.179,85.648c-0.898,0-1.513,0.629-1.513,1.457    c0,0.603,0.242,1.045,0.998,1.86c1.275-0.429,1.932-1.03,1.932-1.917C179.596,86.234,178.995,85.648,178.179,85.648z"/>
		<path d="M198.372,94.898h-3.473V84.89h3.473c3.147,0,5.317,2.158,5.317,4.99C203.689,92.71,201.519,94.898,198.372,94.898z     M198.372,85.934h-2.345v7.921h2.345c2.531,0,4.146-1.716,4.146-3.947C202.518,87.679,200.902,85.934,198.372,85.934z"/>
		<path d="M210.17,84.89v10.008h-1.13V84.89H210.17z"/>
		<path d="M219.552,89.351c2.229,0.487,3.259,1.302,3.259,2.846c0,1.729-1.431,2.846-3.417,2.846c-1.588,0-2.889-0.53-4.091-1.602    l0.701-0.83c1.043,0.943,2.047,1.416,3.433,1.416c1.343,0,2.23-0.701,2.23-1.716c0-0.943-0.502-1.473-2.604-1.916    c-2.3-0.5-3.359-1.244-3.359-2.902c0-1.601,1.386-2.744,3.289-2.744c1.456,0,2.502,0.415,3.516,1.229l-0.657,0.873    c-0.929-0.758-1.86-1.087-2.888-1.087c-1.302,0-2.131,0.714-2.131,1.63C216.833,88.35,217.348,88.878,219.552,89.351z"/>
		<path d="M232.547,95.07c-2.887,0-5.017-2.274-5.017-5.162c0-2.86,2.118-5.188,5.062-5.188c1.814,0,2.901,0.642,3.903,1.585    l-0.771,0.831c-0.846-0.802-1.788-1.373-3.147-1.373c-2.215,0-3.874,1.788-3.874,4.117c0,2.331,1.672,4.146,3.874,4.146    c1.372,0,2.275-0.529,3.23-1.445l0.746,0.73C235.509,94.37,234.363,95.07,232.547,95.07z"/>
		<path d="M245.747,95.07c-3.044,0-5.089-2.389-5.089-5.162c0-2.772,2.073-5.188,5.119-5.188c3.044,0,5.09,2.385,5.09,5.16    S248.792,95.07,245.747,95.07z M245.747,85.763c-2.287,0-3.917,1.829-3.917,4.117c0,2.287,1.659,4.146,3.946,4.146    c2.286,0,3.918-1.83,3.918-4.118C249.694,87.621,248.034,85.763,245.747,85.763z"/>
		<path d="M263.064,84.89h1.215l-4.304,10.08h-1l-4.302-10.08h1.256l3.562,8.62L263.064,84.89z"/>
		<path d="M276.351,85.919h-6.106v3.417h5.46v1.03h-5.46v3.502h6.174v1.029h-7.302V84.89h7.234V85.919z"/>
		<path d="M288.448,94.898l-2.903-3.889h-2.861v3.889h-1.129V84.89h4.305c2.201,0,3.616,1.187,3.616,2.988    c0,1.673-1.144,2.645-2.715,2.931l3.073,4.09H288.448z M285.772,85.934h-3.088v4.061h3.076c1.5,0,2.572-0.771,2.572-2.073    C288.332,86.677,287.388,85.934,285.772,85.934z"/>
		<path d="M295.983,84.89v10.008h-1.128V84.89H295.983z"/>
		<path d="M309.01,85.919h-6.103v3.417h5.459v1.03h-5.459v3.502h6.176v1.029h-7.305V84.89h7.232V85.919z"/>
		<path d="M317.808,89.351c2.229,0.487,3.258,1.302,3.258,2.846c0,1.729-1.43,2.846-3.417,2.846c-1.587,0-2.888-0.53-4.089-1.602    l0.701-0.83c1.042,0.943,2.043,1.416,3.431,1.416c1.344,0,2.23-0.701,2.23-1.716c0-0.943-0.501-1.473-2.604-1.916    c-2.299-0.5-3.359-1.244-3.359-2.902c0-1.601,1.388-2.744,3.291-2.744c1.457,0,2.5,0.415,3.517,1.229l-0.659,0.873    c-0.931-0.758-1.86-1.087-2.889-1.087c-1.302,0-2.13,0.714-2.13,1.63C315.089,88.35,315.603,88.878,317.808,89.351z"/>
		<path d="M82.866,102.05v10.009h-1.129V102.05H82.866z"/>
		<path d="M96.021,102.05h1.103v10.009h-0.903l-6.461-8.208v8.208h-1.101V102.05h1.059l6.304,8.021V102.05z"/>
		<path d="M117.157,103.095h-6.062v3.573h5.418v1.03h-5.418v4.362h-1.131V102.05h7.193V103.095z"/>
		<path d="M129.441,103.08h-6.105v3.417h5.46v1.03h-5.46v3.502h6.175v1.03h-7.307V102.05h7.236V103.08z"/>
		<path d="M141.54,112.06l-2.904-3.89h-2.859v3.89h-1.129V102.05h4.303c2.202,0,3.619,1.187,3.619,2.988    c0,1.673-1.144,2.646-2.717,2.932l3.074,4.09H141.54z M138.866,103.095h-3.089v4.059h3.072c1.503,0,2.577-0.772,2.577-2.072    C141.425,103.837,140.481,103.095,138.866,103.095z"/>
		<path d="M152.651,109.313h-0.059l-3.646-5.348v8.094h-1.099V102.05h1.145l3.646,5.461l3.646-5.461h1.144v10.009h-1.13v-8.107    L152.651,109.313z"/>
		<path d="M170.354,103.08h-6.106v3.417h5.462v1.03h-5.462v3.502h6.176v1.03h-7.304V102.05h7.234V103.08z"/>
		<path d="M182.922,102.05h1.101v10.009h-0.901l-6.463-8.208v8.208h-1.099V102.05h1.06l6.303,8.021V102.05z"/>
		<path d="M193.507,112.06h-1.145v-8.965h-3.359v-1.044h7.862v1.044h-3.359V112.06z"/>
		<path d="M209.877,112.06h-1.215l-1.172-2.647h-5.448l-1.186,2.647h-1.159l4.561-10.08h1.059L209.877,112.06z M204.772,103.293    l-2.286,5.104h4.559L204.772,103.293z"/>
		<path d="M217.212,112.06h-1.144v-8.965h-3.361v-1.044h7.863v1.044h-3.359V112.06z"/>
		<path d="M226.779,102.05v10.009h-1.129V102.05H226.779z"/>
		<path d="M237.219,112.23c-3.046,0-5.09-2.388-5.09-5.161c0-2.774,2.071-5.19,5.118-5.19c3.044,0,5.089,2.388,5.089,5.161    C242.336,109.814,240.264,112.23,237.219,112.23z M237.219,102.922c-2.29,0-3.918,1.831-3.918,4.118    c0,2.288,1.659,4.146,3.945,4.146c2.288,0,3.918-1.83,3.918-4.118C241.165,104.781,239.506,102.922,237.219,102.922z"/>
		<path d="M254.951,102.05h1.1v10.009h-0.901l-6.462-8.208v8.208h-1.101V102.05h1.057l6.307,8.021V102.05z"/>
	</g>
</g>
</svg>